# xmcd CD database file
#
# Track frame offsets:
#	150
#	32126
#	57222
#	76321
#	92207
#	111531
#	141348
#	163004
#	182285
#	214366
#	231044
#	254937
#	278573
#	303271
#
# Disc length: 4712 seconds
#
# Revision: 0
# Processed by: cddbd v1.5.2PL0 Copyright (c) Steve Scherf et al.
# Submitted via: CDex 1.51
#
DISCID=c912660e
DTITLE=Esther and Jerry Hicks - Wunscherfüllung - Die 22 Methoden CD2
DYEAR=2007
DGENRE=New Age
TTITLE0=17-Drehbücher schreiben
TTITLE1=18-Listen aufstellen
TTITLE2=19-Zukunfts-Segmente gestalten
TTITLE3=20-Wäre es nicht schön wenn ...
TTITLE4=21-Welcher Gedanke fühlt sich besser an?
TTITLE5=22-Durch Aufräumen Klarheit schaffen
TTITLE6=23-Die Brieftaschen-Methode
TTITLE7=24-Umkehrung
TTITLE8=25-Das Rad der Aufmerksamkeit
TTITLE9=26-Gute Gefühle finden
TTITLE10=27-Widerstand abbauen und schuldenfrei werden
TTITLE11=28-Dinge dem universalen Manager übergeben
TTITLE12=29-Natürliche Gesundheit beanspruchen
TTITLE13=30-Sich auf der Emotions-Skala aufwärts bewegen
EXTD=YEAR: 2007
EXTT0=
EXTT1=
EXTT2=
EXTT3=
EXTT4=
EXTT5=
EXTT6=
EXTT7=
EXTT8=
EXTT9=
EXTT10=
EXTT11=
EXTT12=
EXTT13=
PLAYORDER=
